<?xml version="1.0" standalone="no"?>
<!DOCTYPE svg PUBLIC "-//W3C//DTD SVG 20010904//EN"
 "http://www.w3.org/TR/2001/REC-SVG-20010904/DTD/svg10.dtd">
<svg version="1.0" xmlns="http://www.w3.org/2000/svg"
 width="512.000000pt" height="871.000000pt" viewBox="0 0 512.000000 871.000000"
 preserveAspectRatio="xMidYMid meet">

<g transform="translate(0.000000,871.000000) scale(0.100000,-0.100000)"
fill="#000000" stroke="none">
<path d="M270 8520 l0 -60 65 0 65 0 0 60 0 60 -65 0 -65 0 0 -60z m95 30 c3
-5 -1 -10 -9 -10 -10 0 -16 -9 -16 -25 0 -14 -4 -25 -10 -25 -5 0 -10 11 -10
25 0 14 -5 25 -11 25 -5 0 -7 5 -4 10 3 6 17 10 30 10 13 0 27 -4 30 -10z"/>
<path d="M4440 8510 l0 -70 208 2 207 3 3 68 3 67 -211 0 -210 0 0 -70z m150
2 c0 -22 -2 -23 -17 -11 -11 10 -14 10 -9 2 4 -7 2 -13 -3 -13 -11 0 -15 32
-6 42 14 14 35 2 35 -20z m136 8 c18 0 18 -26 0 -33 -15 -6 -27 13 -25 41 0
11 2 12 6 5 2 -7 11 -13 19 -13z m-69 -15 c2 -11 0 -14 -3 -8 -4 10 -9 9 -21
-2 -21 -22 -33 -18 -33 9 0 21 4 24 27 23 19 -2 29 -9 30 -22z m36 5 c3 -11 1
-20 -4 -20 -5 0 -9 2 -9 4 0 2 -3 11 -6 20 -3 9 -2 16 4 16 5 0 12 -9 15 -20z"/>
<path d="M456 8542 c7 -4 14 -16 17 -27 4 -19 5 -19 6 2 0 12 7 24 14 26 6 3
-1 6 -18 6 -16 0 -25 -3 -19 -7z"/>
<path d="M710 8527 c0 -15 4 -27 8 -27 10 0 9 36 -1 46 -4 4 -7 -5 -7 -19z"/>
<path d="M511 8518 c0 -16 2 -18 6 -8 3 8 11 18 17 22 7 5 4 8 -6 8 -12 0 -18
-7 -17 -22z"/>
<path d="M553 8525 c-3 -9 -3 -19 1 -22 3 -4 6 1 6 10 0 11 5 14 17 10 11 -4
14 -3 9 5 -10 17 -26 15 -33 -3z"/>
<path d="M620 8533 c16 -8 12 -23 -5 -17 -8 4 -15 2 -15 -3 0 -5 9 -9 21 -10
22 -2 24 28 1 33 -7 1 -8 0 -2 -3z"/>
<path d="M655 8530 c-9 -14 3 -30 23 -30 15 0 15 2 2 10 -13 9 -13 11 0 20 13
8 13 10 -2 10 -9 0 -20 -4 -23 -10z"/>
<path d="M381 7934 c0 -11 3 -14 6 -6 3 7 2 16 -1 19 -3 4 -6 -2 -5 -13z"/>
<path d="M471 7934 c0 -11 3 -14 6 -6 3 7 2 16 -1 19 -3 4 -6 -2 -5 -13z"/>
<path d="M703 7792 c-23 -15 -21 -122 2 -122 10 0 15 12 17 38 2 50 2 55 10
68 13 20 -7 30 -29 16z"/>
<path d="M1650 7785 c0 -9 5 -15 11 -13 6 2 11 8 11 13 0 5 -5 11 -11 13 -6 2
-11 -4 -11 -13z"/>
<path d="M270 7730 c0 -47 3 -60 15 -60 9 0 15 9 15 25 0 20 5 25 25 25 14 0
25 5 25 10 0 6 -11 10 -25 10 -16 0 -25 6 -25 15 0 9 9 15 25 15 14 0 25 5 25
10 0 6 -18 10 -40 10 l-40 0 0 -60z"/>
<path d="M590 7730 c0 -47 3 -60 15 -60 12 0 15 13 15 60 0 47 -3 60 -15 60
-12 0 -15 -13 -15 -60z"/>
<path d="M2270 7730 c0 -45 3 -60 14 -60 9 0 16 12 18 33 2 17 8 32 13 32 6 0
11 -15 13 -32 4 -46 32 -45 32 1 0 37 -21 62 -45 52 -10 -4 -15 1 -15 14 0 11
-7 20 -15 20 -12 0 -15 -13 -15 -60z"/>
<path d="M1087 7767 c-2 -7 -2 -30 2 -52 5 -31 11 -41 29 -43 12 -2 22 1 22 7
0 6 -4 11 -10 11 -14 0 -12 48 2 52 9 3 8 9 -4 21 -20 20 -34 22 -41 4z"/>
<path d="M1537 7767 c-2 -7 -2 -30 2 -52 5 -33 11 -41 31 -43 20 -3 23 -1 13
9 -17 17 -17 56 -1 61 9 3 8 9 -4 21 -20 20 -34 22 -41 4z"/>
<path d="M1857 7767 c-2 -7 -2 -30 2 -52 5 -31 11 -41 29 -43 12 -2 22 1 22 7
0 6 -4 11 -10 11 -14 0 -12 48 2 52 9 3 8 9 -4 21 -20 20 -34 22 -41 4z"/>
<path d="M381 7746 c-7 -8 -11 -27 -9 -43 2 -22 9 -29 32 -31 16 -2 33 1 39 7
8 8 3 11 -16 11 -15 0 -27 5 -27 10 0 6 13 10 30 10 24 0 28 3 23 18 -13 33
-51 43 -72 18z m44 -16 c3 -5 -1 -10 -9 -10 -9 0 -16 5 -16 10 0 6 4 10 9 10
6 0 13 -4 16 -10z"/>
<path d="M491 7746 c-7 -8 -11 -27 -9 -43 2 -22 9 -29 32 -31 16 -2 33 1 39 7
8 8 3 11 -15 11 -15 0 -30 5 -33 10 -4 6 7 10 24 10 32 0 41 16 19 38 -16 16
-43 15 -57 -2z m44 -16 c3 -5 -1 -10 -9 -10 -9 0 -16 5 -16 10 0 6 4 10 9 10
6 0 13 -4 16 -10z"/>
<path d="M760 7714 c0 -24 5 -44 10 -44 6 0 10 11 10 24 0 13 7 29 15 36 21
18 19 25 -10 26 -23 2 -25 -1 -25 -42z"/>
<path d="M841 7746 c-7 -8 -11 -27 -9 -43 2 -22 9 -29 32 -31 16 -2 33 1 39 7
8 8 3 11 -16 11 -15 0 -27 5 -27 10 0 6 13 10 30 10 24 0 28 3 23 18 -13 33
-51 43 -72 18z m44 -16 c3 -5 -1 -10 -9 -10 -9 0 -16 5 -16 10 0 6 4 10 9 10
6 0 13 -4 16 -10z"/>
<path d="M946 7739 c-20 -30 -6 -63 29 -67 15 -2 32 1 38 7 8 8 3 11 -15 11
-15 0 -30 5 -33 10 -4 6 7 10 24 10 32 0 41 16 19 38 -18 18 -45 14 -62 -9z
m49 -9 c3 -5 -1 -10 -9 -10 -9 0 -16 5 -16 10 0 6 4 10 9 10 6 0 13 -4 16 -10z"/>
<path d="M1171 7746 c-7 -8 -11 -27 -9 -43 2 -22 9 -29 31 -31 50 -6 75 38 41
72 -19 20 -48 20 -63 2z m44 -31 c0 -10 -6 -20 -12 -22 -8 -3 -13 5 -13 22 0
17 5 25 13 23 6 -3 12 -13 12 -23z"/>
<path d="M1320 7745 c-6 -8 -10 -26 -8 -42 2 -23 8 -28 31 -28 17 1 27 -5 27
-13 0 -10 -8 -13 -25 -10 -35 7 -42 -10 -9 -18 43 -11 59 6 62 69 l3 55 -35 0
c-19 0 -40 -6 -46 -13z m50 -36 c0 -10 -7 -19 -15 -19 -15 0 -21 31 -9 43 11
10 24 -3 24 -24z"/>
<path d="M1436 7744 c-19 -18 -20 -28 -6 -55 11 -20 64 -27 75 -9 4 6 -7 10
-24 10 -17 0 -31 5 -31 10 0 6 14 10 30 10 31 0 39 17 18 38 -17 17 -44 15
-62 -4z m44 -14 c0 -5 -7 -10 -16 -10 -8 0 -12 5 -9 10 3 6 10 10 16 10 5 0 9
-4 9 -10z"/>
<path d="M1650 7715 c0 -33 4 -45 15 -45 11 0 15 12 15 45 0 33 -4 45 -15 45
-11 0 -15 -12 -15 -45z"/>
<path d="M1700 7714 c0 -54 27 -64 32 -11 2 17 8 32 13 32 6 0 11 -15 13 -32
2 -21 9 -33 18 -33 12 0 14 10 12 43 l-3 42 -42 2 -43 1 0 -44z"/>
<path d="M1942 7748 c-27 -27 -10 -78 27 -78 48 0 68 42 35 74 -18 19 -45 21
-62 4z m46 -36 c2 -15 -2 -22 -12 -22 -11 0 -16 9 -16 26 0 31 23 28 28 -4z"/>
<path d="M2040 7728 c0 -46 10 -56 53 -55 37 1 37 1 37 44 0 32 -4 43 -15 43
-11 0 -15 -11 -15 -36 0 -45 -24 -42 -28 4 -4 44 -32 43 -32 0z"/>
<path d="M2171 7746 c-7 -8 -11 -27 -9 -43 3 -25 7 -28 37 -28 19 0 36 6 39
13 3 9 -3 11 -22 6 -23 -5 -26 -3 -26 20 0 26 13 35 25 16 9 -15 25 -12 25 4
0 26 -50 35 -69 12z"/>
<path d="M430 7570 c0 -5 5 -10 10 -10 6 0 10 5 10 10 0 6 -4 10 -10 10 -5 0
-10 -4 -10 -10z"/>
<path d="M560 7516 c0 -52 3 -66 15 -66 11 0 15 11 15 36 0 45 24 42 28 -4 4
-44 32 -43 32 1 0 43 -13 61 -38 55 -16 -4 -22 -1 -24 15 -2 11 -9 22 -15 25
-10 3 -13 -14 -13 -62z"/>
<path d="M487 7552 c-8 -32 7 -97 23 -100 15 -2 17 22 11 106 -2 19 -28 14
-34 -6z"/>
<path d="M276 7503 c4 -21 9 -41 11 -45 9 -17 32 -6 41 20 l10 27 7 -27 c12
-45 42 -37 50 13 4 22 5 43 2 46 -10 10 -27 -8 -28 -30 0 -19 -2 -19 -11 6 -5
15 -15 27 -22 27 -7 0 -17 -12 -23 -27 l-11 -28 -1 28 c-1 17 -7 27 -16 27
-13 0 -15 -7 -9 -37z"/>
<path d="M430 7495 c0 -33 4 -45 15 -45 11 0 15 12 15 45 0 33 -4 45 -15 45
-11 0 -15 -12 -15 -45z"/>
<path d="M710 7506 c0 -40 14 -53 58 -53 31 0 32 2 32 44 0 53 -27 62 -32 11
-2 -18 -7 -33 -13 -33 -5 0 -11 15 -13 33 -4 45 -32 44 -32 -2z"/>
<path d="M834 7525 c-8 -20 4 -35 27 -35 10 0 19 -5 19 -10 0 -6 -11 -8 -25
-4 -30 7 -34 -12 -5 -21 53 -17 84 32 33 52 l-28 11 28 1 c38 1 24 21 -14 21
-17 0 -32 -6 -35 -15z"/>
<path d="M940 7465 c0 -8 5 -15 10 -15 6 0 10 7 10 15 0 8 -4 15 -10 15 -5 0
-10 -7 -10 -15z"/>
<path d="M4535 7203 c-30 -5 -57 -34 -62 -66 -3 -15 0 -16 16 -7 28 14 38 13
60 -9 30 -30 53 -30 63 1 7 19 5 36 -4 55 -14 29 -24 33 -73 26z"/>
<path d="M4460 7032 c-42 -13 -48 -20 -80 -86 -26 -52 -40 -70 -52 -68 -11 2
-18 -3 -18 -12 0 -8 -2 -21 -5 -28 -4 -9 4 -19 20 -26 37 -17 42 -16 62 18 24
41 37 38 28 -7 -4 -21 -11 -60 -16 -88 -5 -27 -11 -169 -14 -315 l-5 -265 -37
-32 -36 -33 34 0 c19 0 43 7 53 15 11 8 28 15 38 15 13 0 18 8 19 28 7 285 9
308 40 391 22 56 33 -8 34 -194 1 -99 5 -188 10 -198 4 -9 4 -28 1 -42 -5 -21
-3 -25 16 -25 38 0 50 13 39 42 -6 16 -6 40 -1 60 4 18 11 110 14 203 3 94 9
187 12 207 6 33 9 36 29 28 33 -13 48 2 41 43 -5 32 0 43 44 98 28 34 50 70
50 79 0 15 -42 87 -59 100 -3 3 -14 21 -23 42 -13 27 -25 38 -50 43 -18 4 -38
11 -44 16 -18 14 -28 -156 -13 -217 16 -66 26 -84 44 -78 15 6 45 -11 45 -25
0 -13 -58 -41 -84 -41 -15 0 -29 7 -32 15 -4 8 -17 15 -30 15 -20 0 -23 4 -19
23 9 44 25 179 25 219 0 71 -13 32 -35 -104 -14 -86 -26 -133 -35 -136 -9 -3
-11 2 -6 19 4 13 13 83 21 155 8 72 17 138 21 147 3 10 5 16 3 16 -2 -1 -24
-8 -49 -17z m236 -177 c13 -20 14 -28 4 -40 -21 -25 -30 -17 -30 25 0 47 4 49
26 15z"/>
<path d="M3476 7013 c-3 -4 -6 -57 -6 -119 l0 -113 138 -114 c168 -139 177
-146 194 -129 19 19 42 14 67 -12 l23 -25 173 86 172 86 17 120 c9 66 15 121
14 122 -6 6 -332 56 -483 74 -193 24 -301 32 -309 24z"/>
<path d="M4530 7009 c0 -5 5 -7 10 -4 6 3 10 8 10 11 0 2 -4 4 -10 4 -5 0 -10
-5 -10 -11z"/>
<path d="M3204 6575 c-4 -8 2 -27 11 -42 l18 -26 14 27 c8 15 12 34 9 42 -7
19 -45 18 -52 -1z"/>
<path d="M3010 6525 c-11 -13 -9 -20 10 -40 13 -14 27 -25 32 -25 12 0 9 55
-4 68 -16 16 -23 15 -38 -3z"/>
<path d="M3157 6504 c-16 -16 -5 -36 27 -49 19 -8 36 -19 38 -26 2 -6 14 -8
30 -4 43 11 49 55 7 55 -11 0 -23 -10 -28 -22 -9 -24 -16 -16 -23 27 -3 20
-37 32 -51 19z"/>
<path d="M2997 6443 c-4 -3 -7 -14 -7 -24 0 -18 19 -29 54 -29 12 0 27 -5 32
-10 14 -14 58 34 51 54 -10 27 -46 19 -53 -11 l-7 -26 -19 26 c-19 26 -38 34
-51 20z"/>
<path d="M3150 6351 c0 -11 4 -22 9 -25 5 -3 7 -15 4 -26 -6 -22 8 -26 36 -10
30 16 33 40 9 61 -30 24 -58 24 -58 0z"/>
<path d="M3265 6324 l-16 -25 38 3 c31 2 39 7 41 26 5 33 -40 30 -63 -4z"/>
<path d="M3044 6299 c-3 -6 0 -17 8 -25 11 -11 21 -12 46 -3 38 13 41 24 10
33 -34 9 -56 7 -64 -5z"/>
<path d="M3195 6246 c-10 -7 -15 -17 -12 -23 4 -5 -6 -8 -24 -5 -28 4 -30 2
-27 -19 2 -20 8 -24 38 -22 19 1 36 6 38 12 7 21 32 11 32 -12 0 -22 3 -24 43
-20 55 5 75 24 52 47 -9 9 -21 14 -26 10 -6 -3 -17 0 -25 7 -8 6 -17 9 -21 5
-4 -3 -16 3 -28 14 -18 17 -24 18 -40 6z"/>
<path d="M270 5685 l0 -75 685 0 685 0 0 75 0 75 -685 0 -685 0 0 -75z m644
17 c6 -10 68 -8 84 2 8 5 12 -1 12 -19 0 -19 -5 -25 -17 -23 -10 2 -21 8 -25
13 -5 7 -8 6 -8 -1 0 -6 -15 -10 -32 -9 -26 1 -34 6 -36 23 -3 21 12 30 22 14z"/>
<path d="M2577 4578 c-18 -29 -11 -108 9 -108 9 0 14 12 14 34 0 19 6 37 13
39 9 4 9 8 -2 15 -9 7 -10 12 -2 16 16 10 14 26 -4 26 -8 0 -21 -10 -28 -22z"/>
<path d="M2645 4573 c-12 -18 -14 -28 -7 -31 7 -2 12 -19 12 -38 0 -19 5 -34
10 -34 6 0 10 15 10 34 0 19 6 37 13 39 9 4 9 8 -2 15 -9 7 -10 12 -2 16 15
10 14 26 -3 26 -7 0 -22 -12 -31 -27z"/>
<path d="M2720 4584 c0 -8 5 -12 10 -9 6 3 10 10 10 16 0 5 -4 9 -10 9 -5 0
-10 -7 -10 -16z"/>
<path d="M2060 4571 c-34 -65 18 -124 81 -91 22 12 27 78 7 98 -20 20 -76 15
-88 -7z m68 -35 c4 -32 -15 -51 -35 -34 -14 11 -18 50 -6 62 15 15 38 -1 41
-28z"/>
<path d="M2436 4568 c-21 -30 -20 -54 4 -78 39 -39 100 -14 100 43 0 55 -73
79 -104 35z m72 -26 c4 -28 -14 -53 -33 -45 -21 7 -29 42 -14 59 17 21 43 13
47 -14z"/>
<path d="M2192 4518 l3 -43 43 -2 42 -2 0 45 c0 54 -27 64 -32 12 -2 -18 -7
-33 -13 -33 -5 0 -11 15 -13 33 -2 20 -9 32 -18 32 -12 0 -14 -10 -12 -42z"/>
<path d="M2310 4514 c0 -32 4 -44 15 -44 10 0 15 10 15 30 0 18 6 33 15 36 25
10 17 21 -15 22 -29 1 -30 -1 -30 -44z"/>
<path d="M2710 4515 c0 -33 4 -45 15 -45 11 0 15 12 15 45 0 33 -4 45 -15 45
-11 0 -15 -12 -15 -45z"/>
<path d="M2783 4554 c-7 -3 -13 -21 -13 -40 0 -28 4 -35 25 -40 32 -8 55 1 55
21 0 17 -16 20 -25 5 -11 -18 -25 -10 -25 15 0 22 3 25 26 19 20 -5 25 -3 22
7 -5 14 -43 22 -65 13z"/>
<path d="M2886 4544 c-19 -19 -20 -35 -3 -58 15 -20 68 -19 75 2 3 9 -3 11
-21 7 -14 -4 -28 -2 -31 4 -5 7 4 11 23 11 32 0 41 16 19 38 -17 17 -44 15
-62 -4z m44 -14 c0 -5 -4 -10 -10 -10 -5 0 -10 5 -10 10 0 6 5 10 10 10 6 0
10 -4 10 -10z"/>
<path d="M2997 4553 c-15 -14 -7 -43 12 -43 11 0 23 -5 27 -11 4 -8 -4 -9 -27
-4 -30 7 -32 6 -20 -9 24 -29 90 -14 78 18 -4 9 -15 16 -26 16 -11 0 -23 5
-27 11 -4 8 4 9 27 4 30 -7 32 -6 20 9 -13 16 -52 22 -64 9z"/>
<path d="M871 3804 c0 -25 2 -26 9 -9 7 18 8 19 15 3 11 -27 25 -21 24 10 -1
18 -3 21 -6 9 -5 -18 -6 -18 -24 -1 -18 16 -19 16 -18 -12z"/>
<path d="M1113 3815 c-6 -6 -8 -18 -3 -24 5 -9 9 -5 13 10 7 28 6 31 -10 14z"/>
<path d="M2102 3805 c0 -16 2 -22 5 -12 2 9 2 23 0 30 -3 6 -5 -1 -5 -18z"/>
<path d="M2152 3805 c0 -16 2 -22 5 -12 2 9 2 23 0 30 -3 6 -5 -1 -5 -18z"/>
<path d="M3326 3814 c-5 -13 -3 -14 6 -7 7 6 20 13 28 16 10 4 8 6 -6 6 -12 1
-25 -6 -28 -15z"/>
<path d="M3442 3805 c0 -16 2 -22 5 -12 2 9 2 23 0 30 -3 6 -5 -1 -5 -18z"/>
<path d="M3497 3823 c-3 -5 -1 -17 4 -28 7 -17 8 -17 8 8 1 27 -4 34 -12 20z"/>
<path d="M943 3805 c-3 -9 -3 -19 1 -22 3 -4 6 1 6 10 0 8 6 18 13 20 9 4 9 6
-1 6 -7 1 -15 -6 -19 -14z"/>
<path d="M990 3806 c0 -8 4 -17 9 -20 5 -4 7 3 4 14 -6 23 -13 26 -13 6z"/>
<path d="M1010 3814 c0 -6 7 -17 15 -24 12 -10 16 -9 21 4 4 9 4 20 0 23 -3 4
-6 -2 -6 -12 0 -18 -1 -18 -15 1 -8 10 -15 14 -15 8z"/>
<path d="M1144 3805 c-4 -9 -4 -19 0 -22 3 -4 6 1 6 10 0 21 17 22 23 2 4 -12
5 -11 3 1 -2 23 -24 30 -32 9z"/>
<path d="M1200 3800 c0 -11 2 -20 4 -20 2 0 6 9 9 20 3 11 1 20 -4 20 -5 0 -9
-9 -9 -20z"/>
<path d="M1251 3806 c-9 -10 -8 -15 2 -19 8 -3 13 3 13 14 0 23 0 23 -15 5z"/>
<path d="M2202 3800 c0 -14 2 -19 5 -12 2 6 2 18 0 25 -3 6 -5 1 -5 -13z"/>
<path d="M2227 3799 c4 -13 8 -18 11 -10 2 7 -1 18 -6 23 -8 8 -9 4 -5 -13z"/>
<path d="M2265 3810 c-3 -6 1 -7 9 -4 18 7 21 14 7 14 -6 0 -13 -4 -16 -10z"/>
<path d="M2312 3800 c0 -14 2 -19 5 -12 2 6 2 18 0 25 -3 6 -5 1 -5 -13z"/>
<path d="M2340 3811 c0 -5 7 -14 15 -21 10 -9 15 -9 15 -1 0 6 -5 11 -11 11
-5 0 -7 5 -4 10 3 6 1 10 -4 10 -6 0 -11 -4 -11 -9z"/>
<path d="M3410 3811 c13 -9 13 -11 -2 -11 -10 0 -18 -4 -18 -8 0 -4 9 -8 20
-8 24 0 23 27 0 33 -13 4 -13 3 0 -6z"/>
<path d="M3472 3800 c0 -14 2 -19 5 -12 2 6 2 18 0 25 -3 6 -5 1 -5 -13z"/>
<path d="M3534 3805 c-4 -9 -4 -19 0 -22 3 -4 6 1 6 10 0 21 17 22 23 2 4 -12
5 -11 3 1 -2 23 -24 30 -32 9z"/>
<path d="M3582 3800 c0 -14 2 -19 5 -12 2 6 2 18 0 25 -3 6 -5 1 -5 -13z"/>
<path d="M3622 3800 c0 -14 2 -19 5 -12 2 6 2 18 0 25 -3 6 -5 1 -5 -13z"/>
<path d="M3647 3799 c4 -13 8 -18 11 -10 2 7 -1 18 -6 23 -8 8 -9 4 -5 -13z"/>
<path d="M3681 3804 c0 -11 3 -14 6 -6 3 7 2 16 -1 19 -3 4 -6 -2 -5 -13z"/>
<path d="M3716 3813 c6 -4 14 -15 17 -23 5 -11 6 -9 4 4 -1 11 -9 21 -17 23
-10 3 -11 2 -4 -4z"/>
<path d="M876 2942 c7 -4 14 -18 17 -32 l4 -25 2 27 c0 14 7 29 14 31 6 3 -1
6 -18 6 -16 0 -25 -3 -19 -7z"/>
<path d="M2101 2920 c0 -28 2 -31 9 -15 7 18 8 19 15 3 12 -29 25 -20 24 15
-1 26 -3 28 -6 8 l-5 -25 -19 25 -19 24 1 -35z"/>
<path d="M2341 2928 c0 -14 -7 -29 -13 -31 -10 -4 -10 -6 0 -6 16 -1 25 22 19
46 -3 12 -5 9 -6 -9z"/>
<path d="M3330 2934 c-11 -12 -10 -18 3 -32 16 -15 18 -15 34 0 13 14 14 20 3
32 -7 9 -16 16 -20 16 -4 0 -13 -7 -20 -16z m36 -5 c10 -17 -13 -36 -27 -22
-12 12 -4 33 11 33 5 0 12 -5 16 -11z"/>
<path d="M3390 2923 c0 -18 2 -33 4 -33 9 0 13 39 5 51 -6 10 -9 4 -9 -18z"/>
<path d="M925 2920 c-9 -15 4 -30 23 -29 16 1 16 2 0 6 -10 2 -15 10 -11 19 6
16 -3 19 -12 4z"/>
<path d="M982 2910 c0 -14 2 -19 5 -12 2 6 2 18 0 25 -3 6 -5 1 -5 -13z"/>
<path d="M1012 2910 c0 -14 2 -19 5 -12 2 6 2 18 0 25 -3 6 -5 1 -5 -13z"/>
<path d="M1030 2910 c0 -11 2 -20 4 -20 2 0 6 9 9 20 3 11 1 20 -4 20 -5 0 -9
-9 -9 -20z"/>
<path d="M1062 2910 c0 -14 2 -19 5 -12 2 6 2 18 0 25 -3 6 -5 1 -5 -13z"/>
<path d="M1093 2916 c1 -11 9 -21 17 -23 10 -3 11 -2 4 4 -6 4 -14 15 -17 23
-5 11 -6 9 -4 -4z"/>
<path d="M1301 2913 c-1 -16 5 -23 17 -23 10 0 13 3 6 8 -6 4 -14 14 -17 22
-4 10 -6 8 -6 -7z"/>
<path d="M2185 2920 c-3 -5 -1 -10 4 -10 6 0 11 5 11 10 0 6 -2 10 -4 10 -3 0
-8 -4 -11 -10z"/>
<path d="M2250 2912 c6 -13 14 -21 18 -18 3 4 -2 14 -12 24 -18 16 -18 16 -6
-6z"/>
<path d="M2365 2920 c-9 -15 4 -30 23 -29 16 1 16 2 0 6 -10 2 -15 10 -11 19
6 16 -3 19 -12 4z"/>
<path d="M2422 2910 c0 -14 2 -19 5 -12 2 6 2 18 0 25 -3 6 -5 1 -5 -13z"/>
<path d="M2511 2913 c-1 -16 5 -23 17 -23 10 0 13 3 6 8 -6 4 -14 14 -17 22
-4 10 -6 8 -6 -7z"/>
<path d="M2530 2920 c0 -5 5 -10 11 -10 5 0 7 5 4 10 -3 6 -8 10 -11 10 -2 0
-4 -4 -4 -10z"/>
<path d="M3422 2910 c0 -14 2 -19 5 -12 2 6 2 18 0 25 -3 6 -5 1 -5 -13z"/>
<path d="M3452 2910 c0 -14 2 -19 5 -12 2 6 2 18 0 25 -3 6 -5 1 -5 -13z"/>
<path d="M3475 2920 c-9 -15 4 -30 23 -29 15 1 14 2 -1 6 -11 3 -16 11 -13 19
6 16 0 19 -9 4z"/>
<path d="M1242 2908 c3 -7 12 -14 22 -14 13 -2 13 -1 1 3 -8 2 -13 9 -10 14 4
5 1 9 -5 9 -7 0 -10 -6 -8 -12z"/>
<path d="M2160 2911 c0 -10 19 -25 25 -20 1 2 -3 10 -11 17 -8 7 -14 8 -14 3z"/>
<path d="M2220 2906 c0 -9 5 -16 10 -16 6 0 10 4 10 9 0 6 -4 13 -10 16 -5 3
-10 -1 -10 -9z"/>
<path d="M2571 2893 c-10 -26 -10 -27 4 -9 8 11 15 23 15 28 0 15 -7 8 -19
-19z"/>
<path d="M1160 2900 c-9 -6 -10 -10 -3 -10 6 0 15 5 18 10 8 12 4 12 -15 0z"/>
<path d="M1210 2900 c-9 -6 -10 -10 -3 -10 6 0 15 5 18 10 8 12 4 12 -15 0z"/>
<path d="M2470 2900 c-13 -8 -12 -10 3 -10 9 0 17 5 17 10 0 12 -1 12 -20 0z"/>
<path d="M302 1490 c0 -14 2 -19 5 -12 2 6 2 18 0 25 -3 6 -5 1 -5 -13z"/>
<path d="M362 1490 c0 -14 2 -19 5 -12 2 6 2 18 0 25 -3 6 -5 1 -5 -13z"/>
<path d="M1029 1502 c9 -7 10 -11 2 -15 -7 -4 -8 -5 0 -3 15 2 13 20 -3 24
-10 3 -10 2 1 -6z"/>
<path d="M1112 1496 c7 -8 15 -12 17 -11 5 6 -10 25 -20 25 -5 0 -4 -6 3 -14z"/>
<path d="M1225 1499 c-11 -16 -1 -19 13 -3 7 8 8 14 3 14 -5 0 -13 -5 -16 -11z"/>
<path d="M1871 1488 c1 -18 2 -19 6 -5 2 9 9 14 15 11 7 -4 8 -2 4 4 -12 20
-26 13 -25 -10z"/>
<path d="M2582 1490 c0 -14 2 -19 5 -12 2 6 2 18 0 25 -3 6 -5 1 -5 -13z"/>
<path d="M2702 1490 c0 -14 2 -19 5 -12 2 6 2 18 0 25 -3 6 -5 1 -5 -13z"/>
<path d="M3521 1494 c0 -11 3 -14 6 -6 3 7 2 16 -1 19 -3 4 -6 -2 -5 -13z"/>
<path d="M3645 1500 c-3 -6 1 -7 9 -4 18 7 21 14 7 14 -6 0 -13 -4 -16 -10z"/>
<path d="M3722 1490 c0 -14 2 -19 5 -12 2 6 2 18 0 25 -3 6 -5 1 -5 -13z"/>
<path d="M4081 1502 c-1 -8 -6 -10 -13 -6 -8 5 -7 1 2 -10 15 -19 26 -7 17 17
-4 9 -6 9 -6 -1z"/>
<path d="M4232 1490 c0 -14 2 -19 5 -12 2 6 2 18 0 25 -3 6 -5 1 -5 -13z"/>
<path d="M4261 1488 c0 -16 2 -18 6 -8 3 8 11 18 17 22 7 5 4 8 -6 8 -12 0
-18 -7 -17 -22z"/>
<path d="M4308 1503 c7 -3 16 -2 19 1 4 3 -2 6 -13 5 -11 0 -14 -3 -6 -6z"/>
<path d="M4411 1488 c1 -18 2 -19 6 -5 2 9 9 14 15 11 7 -4 8 -2 4 4 -12 20
-26 13 -25 -10z"/>
<path d="M380 1496 c0 -2 7 -9 15 -16 9 -7 15 -8 15 -2 0 5 -7 12 -15 16 -8 3
-15 4 -15 2z"/>
<path d="M4380 1035 l0 -85 235 0 235 0 0 85 0 85 -235 0 -235 0 0 -85z m178
8 c6 12 11 16 11 10 1 -15 101 -19 101 -4 0 4 16 3 35 -3 19 -6 35 -16 35 -22
0 -15 -63 -16 -72 -1 -6 9 -8 8 -8 -2 0 -11 -3 -11 -17 0 -12 10 -15 11 -9 1
6 -10 -8 -12 -63 -11 -59 2 -71 5 -71 19 0 28 14 33 31 11 16 -20 16 -20 27 2z"/>
<path d="M4420 440 c-24 -24 -25 -38 -4 -68 17 -24 62 -30 82 -10 18 18 14 63
-6 81 -25 22 -48 21 -72 -3z m50 -35 c0 -14 -4 -25 -10 -25 -11 0 -14 33 -3
43 11 11 13 8 13 -18z"/>
<path d="M4597 442 c-20 -22 -22 -63 -5 -80 20 -20 65 -14 82 10 21 30 20 44
-4 68 -25 25 -52 26 -73 2z m51 -40 c-5 -24 -38 -28 -38 -5 0 12 8 19 21 20
14 1 19 -3 17 -15z"/>
<path d="M4772 444 c-24 -16 -28 -44 -12 -75 21 -39 100 -12 100 34 0 20 -34
57 -53 57 -7 0 -23 -7 -35 -16z m58 -44 c0 -15 -7 -20 -25 -20 -18 0 -25 5
-25 20 0 15 7 20 25 20 18 0 25 -5 25 -20z"/>
<path d="M270 400 l0 -50 50 0 50 0 0 50 0 50 -50 0 -50 0 0 -50z m64 3 c-4
-16 -8 -30 -10 -32 -6 -7 -11 2 -18 32 -5 23 -3 27 14 27 17 0 19 -4 14 -27z"/>
<path d="M427 423 c-4 -3 -7 -16 -6 -27 0 -19 1 -19 10 3 10 24 8 36 -4 24z"/>
<path d="M630 406 c0 -8 4 -17 8 -20 4 -2 8 4 8 15 0 10 -4 19 -8 19 -4 0 -8
-6 -8 -14z"/>
<path d="M682 400 c0 -14 2 -19 5 -12 2 6 2 18 0 25 -3 6 -5 1 -5 -13z"/>
<path d="M461 394 c0 -11 3 -14 6 -6 3 7 2 16 -1 19 -3 4 -6 -2 -5 -13z"/>
<path d="M490 397 c0 -10 8 -17 18 -17 9 0 13 4 7 8 -5 4 -13 11 -17 16 -5 5
-8 2 -8 -7z"/>
<path d="M540 393 c0 -7 7 -13 15 -13 8 0 15 6 15 13 0 8 -7 14 -15 14 -8 0
-15 -6 -15 -14z"/>
<path d="M582 398 c2 -6 10 -13 16 -14 7 -1 8 0 2 3 -5 2 -8 9 -4 14 3 5 0 9
-6 9 -7 0 -10 -5 -8 -12z"/>
<path d="M711 394 c0 -11 3 -14 6 -6 3 7 2 16 -1 19 -3 4 -6 -2 -5 -13z"/>
<path d="M731 394 c0 -11 3 -14 6 -6 3 7 2 16 -1 19 -3 4 -6 -2 -5 -13z"/>
<path d="M760 397 c0 -10 8 -17 18 -17 9 0 13 4 7 8 -5 4 -13 11 -17 16 -5 5
-8 2 -8 -7z"/>
</g>
</svg>
